<?xml version="1.0" encoding="utf-8"?>
<svg xmlns="http://www.w3.org/2000/svg" viewBox="0 0 2000 2000">
  <style>
    .bg { fill: #681038; }
    .fg { fill: #ffffff; }
  </style>
  <rect class="bg" width="2000" height="2000" rx="400" />
  <path class="fg" d="M1676.063 815.176h-496.118l-70.677 235.569-70.662-235.569H961.409l-70.677 235.569-70.662-235.569H595.014c-68.229 0-125.653 46.217-142.701 109.048C489.251 654.75 720.378 447.157 1000 447.157c211.837 0 395.82 119.157 488.645 294.09h162.723a748.76 748.76 0 0 0-42.797-88.784l.173.173 26.138-78.414-209.105-209.104-78.414 26.138.176.176a743.548 743.548 0 0 0-162.747-67.502h.032L1147.859 250H852.141l-36.965 73.93h.026a743.93 743.93 0 0 0-162.733 67.493l.167-.167-78.414-26.138L365.118 574.222l26.138 78.414.165-.166a744.51 744.51 0 0 0-67.492 162.728V852.142L250 852.141v295.718l73.93 36.965v-.025a744.87 744.87 0 0 0 67.497 162.735l-.17-.17-26.138 78.414 209.104 209.104 78.415-26.138-.168-.168a743.73 743.73 0 0 0 162.727 67.494h-.019L852.141 1750h295.718l36.965-73.93h-.025a743.71 743.71 0 0 0 162.741-67.503l-.177.177 78.414 26.138 209.105-209.104-26.138-78.414-.178.178a745.07 745.07 0 0 0 67.504-162.747v.029L1750 1147.859V852.141s-73.934-36.956-73.937-36.965zM1000 1552.846c-279.621 0-510.747-207.606-547.687-477.07 17.049 62.832 74.473 109.048 142.701 109.048h147.859v-73.93H595.014c-40.83 0-73.93-33.1-73.93-73.93v-73.93c0-40.83 33.1-73.93 73.93-73.93h170.038l88.715 295.718h73.93L1000 943.814l72.303 241.01h73.93l88.715-295.718h133.073v295.718h73.93V889.106h99.766c7.295 35.827 11.128 72.914 11.128 110.896 0 305.313-247.516 552.844-552.845 552.844z"/>
</svg>
