<?xml version="1.0" encoding="utf-8"?>
<!-- Generator: Adobe Illustrator 25.3.1, SVG Export Plug-In . SVG Version: 6.00 Build 0)  -->
<svg version="1.1" id="Layer_1" xmlns="http://www.w3.org/2000/svg" xmlns:xlink="http://www.w3.org/1999/xlink" x="0px" y="0px"
	 viewBox="0 0 2000 2000" style="enable-background:new 0 0 2000 2000;" xml:space="preserve">
<style type="text/css">
	.st0{display:none;fill:#681038;}
	.st1{fill:#FFFFFF;}
	.st2{fill:#681038;}
</style>
<path d="M1676.06323,815.17621H1179.9447l-70.67664,235.56903l-70.66187-235.56903H961.409l-70.67664,235.56903l-70.66193-235.56903
	H595.01434c-68.22852,0-125.65274,46.21661-142.70129,109.04834C489.25146,654.75,720.37823,447.15656,999.99963,447.15656
	c211.83655,0,395.82031,119.15723,488.64478,294.09015h162.72339c-12.21509-30.72235-26.53931-60.37701-42.79675-88.78375
	l0.17322,0.17322l26.13818-78.41412L1425.77795,365.1178l-78.41431,26.13803l0.17615,0.17572
	c-50.62585-28.97375-105.21167-51.81177-162.74744-67.50201h0.03174L1147.85938,250H852.14136l-36.96472,73.92953h0.02594
	c-57.5307,15.68863-112.11218,38.52365-162.73297,67.49316l0.16681-0.16687l-78.41437-26.13803L365.11777,574.22205
	l26.13812,78.41412l0.16531-0.16553c-28.96823,50.61969-51.80261,105.19928-67.4917,162.72815v-0.02258L250,852.14099v295.71814
	l73.9295,36.96472v-0.02478c15.68979,57.53113,38.52563,112.11304,67.49677,162.73511l-0.17038-0.17029l-26.13812,78.41406
	l209.10428,209.10425l78.41437-26.13794l-0.16754-0.16772c50.61932,28.96936,105.19867,51.80469,162.72723,67.4939h-0.01947
	L852.14136,1750h295.71802l36.96472-73.92957h-0.02527c57.53369-15.6908,112.11804-38.52917,162.7417-67.50269l-0.17688,0.17651
	l78.41431,26.13794l209.10449-209.10425l-26.13818-78.41406l-0.17798,0.17798
	c28.97437-50.62549,51.81311-105.21143,67.50439-162.74683v0.02881L1750,1147.85913V852.14099
	C1750,852.14099,1676.06567,815.18506,1676.06323,815.17621z M999.99963,1552.84631
	c-279.62103,0-510.74744-207.60571-547.68658-477.07043c17.04855,62.83142,74.47278,109.04797,142.70129,109.04797h147.85901
	v-73.92957H595.01434c-40.8302,0-73.9295-33.09924-73.9295-73.92944v-73.92963c0-40.83014,33.0993-73.92944,73.9295-73.92944
	h170.03784l88.71539,295.71808h73.9295L1000,943.81354l72.30322,241.01031h73.92957l88.71533-295.71808h133.07312v295.71808
	h73.92957V889.10577h99.76587c7.29504,35.82745,11.12817,72.91382,11.12817,110.89569
	C1552.84485,1305.31543,1305.32849,1552.84631,999.99963,1552.84631z"/>
</svg>
