<svg xmlns="http://www.w3.org/2000/svg" xmlns:xlink="http://www.w3.org/1999/xlink" width="1584" zoomAndPan="magnify" viewBox="0 0 1188 296.999993" height="396" preserveAspectRatio="xMidYMid meet" version="1.0"><rect x="-118.8" width="1425.6" fill="#ffffff" y="-29.699999" height="356.399992" fill-opacity="1"/><rect x="-118.8" width="1425.6" fill="#ffffff" y="-29.699999" height="356.399992" fill-opacity="1"/><path fill="#000000" d="M 1099.914062 130.410156 L 1099.914062 166.582031 C 1099.914062 189.890625 1118.808594 208.789062 1142.117188 208.789062 C 1165.425781 208.789062 1184.320312 189.890625 1184.320312 166.582031 L 1184.320312 130.410156 C 1184.320312 107.101562 1165.425781 88.203125 1142.117188 88.203125 C 1118.808594 88.203125 1099.914062 107.101562 1099.914062 130.410156 Z M 1142.117188 196.730469 C 1125.46875 196.730469 1111.972656 183.234375 1111.972656 166.582031 L 1111.972656 130.410156 C 1111.972656 113.761719 1125.46875 100.261719 1142.117188 100.261719 C 1158.765625 100.261719 1172.261719 113.761719 1172.261719 130.410156 L 1172.261719 166.582031 C 1172.261719 183.234375 1158.765625 196.730469 1142.117188 196.730469 Z M 1142.117188 196.730469 " fill-opacity="1" fill-rule="nonzero"/><path fill="#000000" d="M 1063.738281 88.203125 L 1075.796875 88.203125 L 1075.796875 208.789062 L 1063.738281 208.789062 Z M 1063.738281 88.203125 " fill-opacity="1" fill-rule="nonzero"/><path fill="#000000" d="M 955.214844 88.203125 L 955.214844 208.789062 L 997.417969 208.789062 C 1020.726562 208.789062 1039.621094 189.890625 1039.621094 166.582031 L 1039.621094 130.410156 C 1039.621094 107.101562 1020.726562 88.203125 997.417969 88.203125 Z M 997.417969 196.730469 L 967.273438 196.730469 L 967.273438 100.261719 L 997.417969 100.261719 C 1014.066406 100.261719 1027.5625 113.761719 1027.5625 130.410156 L 1027.5625 166.582031 C 1027.5625 183.234375 1014.066406 196.730469 997.417969 196.730469 Z M 997.417969 196.730469 " fill-opacity="1" fill-rule="nonzero"/><path fill="#000000" d="M 931.097656 88.203125 L 931.097656 166.582031 C 931.097656 189.890625 912.203125 208.789062 888.894531 208.789062 C 865.585938 208.789062 846.6875 189.890625 846.6875 166.582031 L 846.6875 88.203125 L 858.746094 88.203125 L 858.746094 166.582031 C 858.746094 183.234375 872.246094 196.730469 888.894531 196.730469 C 905.542969 196.730469 919.039062 183.234375 919.039062 166.582031 L 919.039062 88.203125 Z M 931.097656 88.203125 " fill-opacity="1" fill-rule="nonzero"/><path fill="#000000" d="M 686.917969 88.203125 C 668.601562 88.203125 653.757812 103.050781 653.757812 121.363281 C 653.757812 139.679688 668.601562 154.523438 686.917969 154.523438 L 705.003906 154.523438 C 716.660156 154.523438 726.105469 163.972656 726.105469 175.628906 C 726.105469 187.28125 716.660156 196.730469 705.003906 196.730469 L 653.757812 196.730469 L 653.757812 208.789062 L 705.003906 208.789062 C 723.320312 208.789062 738.164062 193.941406 738.164062 175.628906 C 738.164062 157.3125 723.320312 142.46875 705.003906 142.46875 L 686.917969 142.46875 C 675.261719 142.46875 665.816406 133.019531 665.816406 121.363281 C 665.816406 109.710938 675.261719 100.261719 686.917969 100.261719 L 774.339844 100.261719 L 774.339844 208.789062 L 786.398438 208.789062 L 786.398438 100.261719 L 822.574219 100.261719 L 822.574219 88.203125 Z M 686.917969 88.203125 " fill-opacity="1" fill-rule="nonzero"/><path fill="#000000" d="M 507.996094 88.203125 L 484.941406 165.050781 L 461.890625 88.203125 L 436.707031 88.203125 L 413.652344 165.050781 L 390.601562 88.203125 L 317.1875 88.203125 C 290.546875 88.203125 268.953125 109.800781 268.953125 136.4375 L 268.953125 160.554688 C 268.953125 187.191406 290.546875 208.789062 317.1875 208.789062 L 365.417969 208.789062 L 365.417969 184.671875 L 317.1875 184.671875 C 303.867188 184.671875 293.070312 173.875 293.070312 160.554688 L 293.070312 136.4375 C 293.070312 123.117188 303.867188 112.320312 317.1875 112.320312 L 372.65625 112.320312 L 401.59375 208.789062 L 425.710938 208.789062 L 449.296875 130.167969 L 472.882812 208.789062 L 497 208.789062 L 525.9375 112.320312 L 569.347656 112.320312 L 569.347656 208.789062 L 593.464844 208.789062 L 593.464844 112.320312 L 629.640625 112.320312 L 629.640625 88.203125 Z M 507.996094 88.203125 " fill-opacity="1" fill-rule="nonzero"/><path fill="#000000" d="M 210.023438 121.753906 L 138.234375 121.753906 L 128.007812 155.839844 L 117.78125 121.753906 L 106.613281 121.753906 L 96.386719 155.839844 L 86.160156 121.753906 L 53.59375 121.753906 C 43.722656 121.753906 35.414062 128.441406 32.945312 137.53125 C 38.289062 98.539062 71.734375 68.5 112.195312 68.5 C 142.847656 68.5 169.46875 85.742188 182.902344 111.054688 L 206.449219 111.054688 C 204.679688 106.609375 202.609375 102.316406 200.253906 98.207031 L 200.28125 98.234375 L 204.0625 86.886719 L 173.804688 56.628906 L 162.460938 60.410156 L 162.484375 60.4375 C 155.160156 56.246094 147.261719 52.941406 138.933594 50.667969 L 138.941406 50.667969 L 133.589844 39.972656 L 90.800781 39.972656 L 85.453125 50.667969 L 85.457031 50.667969 C 77.132812 52.9375 69.234375 56.242188 61.910156 60.433594 L 61.933594 60.410156 L 50.585938 56.628906 L 20.328125 86.886719 L 24.109375 98.234375 L 24.136719 98.207031 C 19.941406 105.535156 16.640625 113.429688 14.367188 121.753906 L 3.671875 127.101562 L 3.671875 169.890625 L 14.367188 175.238281 C 16.640625 183.5625 19.945312 191.460938 24.136719 198.785156 L 24.109375 198.757812 L 20.328125 210.105469 L 50.585938 240.363281 L 61.933594 236.582031 L 61.910156 236.558594 C 69.234375 240.75 77.128906 244.054688 85.453125 246.324219 L 90.800781 257.019531 L 133.589844 257.019531 L 138.941406 246.324219 L 138.9375 246.324219 C 147.261719 244.050781 155.160156 240.746094 162.484375 236.554688 L 162.460938 236.582031 L 173.804688 240.363281 L 204.0625 210.105469 L 200.28125 198.757812 L 200.253906 198.785156 C 204.449219 191.460938 207.753906 183.5625 210.023438 175.234375 L 210.023438 175.238281 L 220.71875 169.890625 L 220.71875 127.101562 C 220.71875 127.101562 210.023438 121.753906 210.023438 121.753906 Z M 112.195312 228.492188 C 71.734375 228.492188 38.289062 198.453125 32.945312 159.460938 C 35.414062 168.550781 43.722656 175.238281 53.59375 175.238281 L 74.988281 175.238281 L 74.988281 164.542969 L 53.59375 164.542969 C 47.6875 164.542969 42.898438 159.753906 42.898438 153.84375 L 42.898438 143.148438 C 42.898438 137.238281 47.6875 132.449219 53.59375 132.449219 L 78.199219 132.449219 L 91.035156 175.238281 L 101.734375 175.238281 L 112.195312 140.367188 L 122.65625 175.238281 L 133.355469 175.238281 L 146.191406 132.449219 L 165.449219 132.449219 L 165.449219 175.238281 L 176.144531 175.238281 L 176.144531 132.449219 L 190.582031 132.449219 C 191.636719 137.632812 192.191406 143 192.191406 148.496094 C 192.191406 192.675781 156.375 228.492188 112.195312 228.492188 Z M 112.195312 228.492188 " fill-opacity="1" fill-rule="nonzero"/></svg>