<?xml version="1.0" encoding="utf-8"?>
<!-- Generator: Adobe Illustrator 25.3.1, SVG Export Plug-In . SVG Version: 6.00 Build 0)  -->
<svg version="1.1" id="Layer_1" xmlns="http://www.w3.org/2000/svg" xmlns:xlink="http://www.w3.org/1999/xlink" x="0px" y="0px"
	 viewBox="0 0 2000 2000" style="enable-background:new 0 0 2000 2000;" xml:space="preserve">
<style type="text/css">
	.st0{display:none;fill:#681038;}
	.st1{fill:#FFFFFF;}
	.st2{fill:#681038;}
</style>
<g>
	<g>
		<path d="M1685.61157,975.48816v49.02368c0,31.58752,25.60669,57.19421,57.19421,57.19421l0,0
			c31.58752,0,57.19421-25.60669,57.19421-57.19421v-49.02368c0-31.58746-25.60669-57.19415-57.19421-57.19415l0,0
			C1711.21826,918.29401,1685.61157,943.9007,1685.61157,975.48816z M1742.80579,1065.36487L1742.80579,1065.36487
			c-22.5625,0-40.85303-18.29053-40.85303-40.85303v-49.02368c0-22.5625,18.29053-40.85297,40.85303-40.85297l0,0
			c22.5625,0,40.85303,18.29047,40.85303,40.85297v49.02368C1783.65881,1047.07434,1765.36829,1065.36487,1742.80579,1065.36487z"/>
		<rect x="1636.58801" y="918.29401" width="16.3412" height="163.41205"/>
		<path d="M1489.51709,918.29401v163.41205h57.19434c31.5874,0,57.19409-25.60669,57.19409-57.19421v-49.02368
			c0-31.58746-25.60669-57.19415-57.19409-57.19415H1489.51709z M1546.71143,1065.36487h-40.85315V934.63519h40.85315
			c22.56238,0,40.85291,18.29047,40.85291,40.85297v49.02368C1587.56433,1047.07434,1569.2738,1065.36487,1546.71143,1065.36487z"/>
		<path d="M1456.83472,918.29401v106.21783c0,31.58752-25.60669,57.19421-57.19421,57.19421h-0.00012
			c-31.5874,0-57.19409-25.60669-57.19409-57.19421V918.29401h16.34119v106.21783c0,22.5625,18.29053,40.85303,40.85303,40.85303
			l0,0c22.5625,0,40.85303-18.29053,40.85303-40.85303V918.29401H1456.83472z"/>
		<path d="M1125.92542,918.29401c-24.81885,0-44.93835,20.11951-44.93835,44.93823v0.00006
			c0,24.81873,20.11951,44.93829,44.93835,44.93829h24.51172c15.79382,0,28.59717,12.80334,28.59717,28.59711l0,0
			c0,15.79382-12.80334,28.59717-28.59717,28.59717h-69.45007v16.34119h69.45007c24.81885,0,44.93835-20.11963,44.93835-44.93835
			l0,0c0-24.81873-20.11951-44.93829-44.93835-44.93829h-24.51172c-15.79382,0-28.59717-12.80334-28.59717-28.59711v-0.00006
			c0-15.7937,12.80334-28.59705,28.59717-28.59705h118.47363v147.07086h16.34119V934.63519h49.02368v-16.34119H1125.92542z"/>
		<path d="M883.45459,918.29401l-31.24438,104.13922l-31.23792-104.13922h-34.12695l-31.24438,104.13922L724.3631,918.29401
			h-99.49176c-36.10004,0-65.36487,29.26477-65.36487,65.36469v32.68262c0,36.09985,29.26483,65.36475,65.36487,65.36475h65.36481
			v-32.6825h-65.36481c-18.05005,0-32.68243-14.63232-32.68243-32.68231v-32.6825c0-18.04999,14.63239-32.68237,32.68243-32.68237
			h75.16949l39.21893,130.72968h32.68237l31.96332-106.54474l31.9635,106.54474h32.68243l39.21887-130.72968h58.82837v130.72968
			h32.68237V950.97638h49.02368v-32.68237H883.45459z"/>
	</g>
	<path d="M479.6431,963.75708h-97.2861l-13.85931,46.19379l-13.85638-46.19379h-15.13794l-13.85931,46.19379l-13.85638-46.19379
		H267.6554c-13.37923,0-24.6398,9.06281-27.98293,21.38379c7.24341-52.84247,52.56609-93.55042,107.3983-93.55042
		c41.53998,0,77.61816,23.36609,95.82053,57.66943h31.90915c-2.39532-6.02448-5.20419-11.8396-8.39221-17.40997l0.034,0.03394
		l5.12552-15.37653l-41.00421-41.00421l-15.37662,5.12555l0.03455,0.03442c-9.92746-5.68158-20.63144-10.15997-31.91388-13.23676
		h0.00623l-7.24857-14.49719h-57.98868l-7.24857,14.49719h0.0051c-11.28146,3.07648-21.98459,7.55426-31.91104,13.23505
		l0.03271-0.03271l-15.37665-5.12555l-41.00417,41.00421l5.12553,15.37653l0.03242-0.03241
		c-5.68051,9.92621-10.15822,20.62897-13.23476,31.9101v-0.00446L200,971.00568v57.98871l14.49716,7.24854v-0.00488
		c3.07669,11.28162,7.55467,21.98474,13.23575,31.9115l-0.03342-0.03345l-5.12553,15.37659l41.00417,41.00415l15.37665-5.12549
		l-0.03287-0.03284c9.92618,5.68066,20.62888,10.15857,31.90991,13.23523H310.828l7.24857,14.49707h57.98868l7.24857-14.49707
		h-0.00494c11.28201-3.0769,21.98572-7.55542,31.91275-13.23694l-0.0347,0.03455l15.37662,5.12549l41.00421-41.00415
		l-5.12552-15.37659l-0.03491,0.03491c5.6817-9.92737,10.16028-20.63135,13.23724-31.9137v0.00562l14.49713-7.24854v-57.98871
		C494.14169,971.00568,479.64355,963.75879,479.6431,963.75708z M347.07077,1108.41016
		c-54.83212,0-100.15474-40.71033-107.3983-93.55096c3.34312,12.32086,14.6037,21.38373,27.98293,21.38373h28.99432v-14.49713
		H267.6554c-8.00656,0-14.49716-6.4906-14.49716-14.49719V992.7514c0-8.00653,6.4906-14.49713,14.49716-14.49713h33.34348
		l17.39661,57.98865h14.49716l14.17819-47.2608l14.17828,47.2608h14.49716l17.39661-57.98865h26.09488v57.98865h14.49716v-57.98865
		h19.56354c1.43054,7.02557,2.18219,14.29797,2.18219,21.74603C455.48065,1059.87061,406.94406,1108.41016,347.07077,1108.41016z"/>
</g>
</svg>
